<?xml version="1.0" encoding="utf-8"?>
<!-- Generator: Adobe Illustrator 16.0.4, SVG Export Plug-In . SVG Version: 6.00 Build 0)  -->
<!DOCTYPE svg PUBLIC "-//W3C//DTD SVG 1.1//EN" "http://www.w3.org/Graphics/SVG/1.1/DTD/svg11.dtd">
<svg version="1.1" id="Layer_1" xmlns="http://www.w3.org/2000/svg" xmlns:xlink="http://www.w3.org/1999/xlink" x="0px" y="0px"
	 width="100px" height="50.5px" viewBox="0 0 100 50.5" enable-background="new 0 0 100 50.5" xml:space="preserve">
<g>
	<g>
		<path fill="#FFFFFF" d="M3.91,45.835l2.361-4.775c2.991,1.837,6.086,2.939,9.865,2.939c5.666,0,8.761-2.939,8.761-8.5v-2.152
			c-2.308,2.991-5.194,5.089-9.759,5.089c-6.506,0-12.592-4.827-12.592-12.959v-0.105c0-8.185,6.139-13.013,12.592-13.013
			c4.67,0,7.556,2.152,9.707,4.722v-4.145h6.349v22.037c0,4.67-1.207,8.132-3.516,10.441c-2.518,2.518-6.4,3.725-11.385,3.725
			C11.727,49.141,7.477,47.987,3.91,45.835z M24.949,25.425V25.32c0-4.512-3.725-7.608-8.132-7.608s-7.871,3.043-7.871,7.608v0.104
			c0,4.512,3.516,7.608,7.871,7.608C21.225,33.033,24.949,29.937,24.949,25.425z"/>
		<path fill="#FFFFFF" d="M36.914,12.938h6.349v27.703h-6.349V12.938z"/>
		<path fill="#FFFFFF" d="M51.658,18.394h-3.515v-5.299h3.515v-2.046c0-3.044,0.787-5.353,2.256-6.822
			c1.469-1.469,3.515-2.204,6.244-2.204c2.204,0,3.725,0.315,5.142,0.735V8.11c-1.26-0.419-2.361-0.682-3.726-0.682
			c-2.414,0-3.672,1.312-3.672,4.198v1.521h7.345v5.247h-7.241v22.247h-6.348V18.394z"/>
		<path fill="#FFFFFF" d="M71.282,32.98V18.394h-3.516v-5.457h3.516V5.33h6.349v7.607h7.451v5.457H77.63v13.589
			c0,2.466,1.259,3.464,3.41,3.464c1.416,0,2.676-0.315,3.936-0.945v5.194c-1.575,0.891-3.305,1.417-5.72,1.417
			C74.586,41.114,71.282,39.067,71.282,32.98z"/>
		<path fill="#FFFFFF" d="M90.591,12.938h6.349v27.703h-6.349V12.938z"/>
	</g>
	<ellipse fill="#FFFFFF" cx="21.367" cy="27.254" rx="3.412" ry="3.499"/>
	<ellipse fill="#FFFFFF" cx="40.107" cy="4.857" rx="3.412" ry="3.499"/>
	<ellipse fill="#FFFFFF" cx="94.042" cy="4.857" rx="3.412" ry="3.499"/>
</g>
<g>
</g>
<g>
</g>
<g>
</g>
<g>
</g>
<g>
</g>
<g>
</g>
<g>
</g>
<g>
</g>
<g>
</g>
<g>
</g>
<g>
</g>
<g>
</g>
<g>
</g>
<g>
</g>
<g>
</g>
</svg>
