<?xml version="1.0" encoding="utf-8"?>
<!-- Generator: Adobe Illustrator 16.0.4, SVG Export Plug-In . SVG Version: 6.00 Build 0)  -->
<!DOCTYPE svg PUBLIC "-//W3C//DTD SVG 1.1//EN" "http://www.w3.org/Graphics/SVG/1.1/DTD/svg11.dtd">
<svg version="1.1" id="Layer_1" xmlns="http://www.w3.org/2000/svg" xmlns:xlink="http://www.w3.org/1999/xlink" x="0px" y="0px"
	 width="85px" height="40px" viewBox="0.817 1.875 85 40" enable-background="new 0.817 1.875 85 40" xml:space="preserve">
<g>
	<g>
		<path fill="#FFFFFF" d="M5.719,38.67l1.926-3.896c2.44,1.498,4.965,2.396,8.048,2.396c4.621,0,7.146-2.396,7.146-6.934v-1.754
			c-1.883,2.438-4.237,4.15-7.961,4.15c-5.308,0-10.272-3.938-10.272-10.571v-0.085c0-6.677,5.008-10.616,10.272-10.616
			c3.81,0,6.164,1.755,7.919,3.852v-3.381h5.179v17.976c0,3.811-0.984,6.635-2.868,8.518c-2.054,2.055-5.221,3.039-9.288,3.039
			C12.095,41.365,8.628,40.424,5.719,38.67z M22.881,22.019v-0.085c0-3.681-3.038-6.206-6.634-6.206c-3.595,0-6.42,2.482-6.42,6.206
			v0.085c0,3.68,2.868,6.207,6.42,6.207C19.844,28.225,22.881,25.7,22.881,22.019z"/>
		<path fill="#FFFFFF" d="M32.642,11.833h5.179v22.599h-5.179V11.833z"/>
		<path fill="#FFFFFF" d="M44.669,16.283h-2.867v-4.322h2.867v-1.669c0-2.483,0.642-4.367,1.84-5.565
			c1.198-1.199,2.868-1.798,5.094-1.798c1.797,0,3.038,0.257,4.193,0.599v4.367c-1.027-0.342-1.926-0.556-3.038-0.556
			c-1.97,0-2.995,1.07-2.995,3.424v1.24h5.99v4.28h-5.907v18.148h-5.177V16.283z"/>
		<path fill="#FFFFFF" d="M60.677,28.182V16.283h-2.868v-4.451h2.868V5.626h5.18v6.206h6.078v4.451h-6.079v11.086
			c0,2.012,1.026,2.824,2.782,2.824c1.155,0,2.183-0.256,3.211-0.77v4.236c-1.285,0.727-2.696,1.156-4.667,1.156
			C63.373,34.816,60.677,33.146,60.677,28.182z"/>
		<path fill="#FFFFFF" d="M76.429,11.833h5.18v22.599h-5.18V11.833z"/>
	</g>
	<ellipse fill="#FFFFFF" cx="19.959" cy="23.511" rx="2.783" ry="2.854"/>
	<ellipse fill="#FFFFFF" cx="35.246" cy="5.241" rx="2.784" ry="2.854"/>
	<ellipse fill="#FFFFFF" cx="79.243" cy="5.241" rx="2.784" ry="2.854"/>
</g>
</svg>
